<?xml version="1.0" encoding="UTF-8" standalone="no"?>
<!DOCTYPE svg PUBLIC "-//W3C//DTD SVG 1.1//EN"
 "http://www.w3.org/Graphics/SVG/1.1/DTD/svg11.dtd">
<!-- Generated by graphviz version 2.30.1 (20130614.1416)
 -->
<!-- Title: rails_hierarchy Pages: 1 -->
<svg width="194pt" height="213pt"
 viewBox="0.00 0.00 194.00 212.80" xmlns="http://www.w3.org/2000/svg" xmlns:xlink="http://www.w3.org/1999/xlink">
<g id="graph0" class="graph" transform="scale(1 1) rotate(0) translate(4 208.8)">
<title>rails_hierarchy</title>
<polygon fill="white" stroke="white" points="-4,5 -4,-208.8 191,-208.8 191,5 -4,5"/>
<text text-anchor="middle" x="93" y="-6.8" font-family="Times,serif" font-size="14.00">Rails Hierarchy</text>
<!-- railtie -->
<g id="node1" class="node"><title>railtie</title>
<ellipse fill="#8fbcdb" stroke="black" cx="93" cy="-186.8" rx="44.2559" ry="18"/>
<text text-anchor="middle" x="93" y="-181.2" font-family="Ubuntu Mono" font-size="14.00" fill="#f2f2f2">Railtie</text>
</g>
<!-- rengine -->
<g id="node2" class="node"><title>rengine</title>
<ellipse fill="#447294" stroke="black" cx="93" cy="-114.8" rx="68.4676" ry="18"/>
<text text-anchor="middle" x="93" y="-109.2" font-family="Ubuntu Mono" font-size="14.00" fill="#f2f2f2">Rails Engine</text>
</g>
<!-- railtie&#45;&gt;rengine -->
<g id="edge1" class="edge"><title>railtie&#45;&gt;rengine</title>
<path fill="none" stroke="black" d="M93,-158.465C93,-149.854 93,-140.591 93,-132.904"/>
<polygon fill="none" stroke="black" points="89.5001,-158.497 93,-168.497 96.5001,-158.497 89.5001,-158.497"/>
</g>
<!-- rapp -->
<g id="node3" class="node"><title>rapp</title>
<ellipse fill="#294052" stroke="black" cx="93" cy="-42.8" rx="93.1811" ry="18"/>
<text text-anchor="middle" x="93" y="-37.2" font-family="Ubuntu Mono" font-size="14.00" fill="#f2f2f2">Rails Application</text>
</g>
<!-- rengine&#45;&gt;rapp -->
<g id="edge2" class="edge"><title>rengine&#45;&gt;rapp</title>
<path fill="none" stroke="black" d="M93,-86.4651C93,-77.8537 93,-68.5913 93,-60.9043"/>
<polygon fill="none" stroke="black" points="89.5001,-86.4966 93,-96.4966 96.5001,-86.4967 89.5001,-86.4966"/>
</g>
</g>
</svg>
